<svg xmlns="http://www.w3.org/2000/svg" xmlns:xlink="http://www.w3.org/1999/xlink" width="291.90751454008773" height="76.84393064858384" version="1.1"><rect id="backgroundrect" width="100%" height="100%" x="0" y="0" fill="none" stroke="none" class="" style=""/><defs xmlns="http://www.w3.org/1999/xhtml"><style type="text/css"><![CDATA[]]></style></defs><defs id="SvgjsDefs4775"/><g class="currentLayer" style=""><title>Layer 1</title><g id="SvgjsG4782" featurekey="root" fill="#2f5d9d"/><g id="SvgjsG4783" featurekey="symbol1" fill="#e84141" class="" fill-opacity="1"><metadata transform="translate(-0.5780346989631653,0) translate(0,-0.5780346989631653) translate(-0.5780346989631653,0) translate(-0.5780346989631653,0) translate(-0.5780346989631653,0) translate(-0.5780346989631653,0) translate(-0.5780346989631653,0) translate(-0.5780346989631653,0) translate(-0.5780346989631653,0) translate(-0.5780346989631653,0) translate(-0.5780346989631653,0) translate(-0.5780346989631653,0) translate(-0.5780346989631653,0) translate(-0.5780346989631653,0) translate(-0.5780346989631653,0) translate(0,-0.5780346989631653) translate(0,-0.5780346989631653) translate(0,-0.5780346989631653) translate(0,-0.5780346989631653) matrix(1.3461538461538463,0,0,1.3461538461538463,1.9230769230769234,-4.077260072414692) " stroke-width="0"><sfw><slices/><slicesourcebounds height="16384" width="16389" x="-8165" y="-8160" bottomleftorigin="true"/></sfw></metadata><g stroke-width="0" id="svg_1" fill="#e84141" fill-opacity="1"><g stroke-width="0" id="svg_2" fill="#e84141" fill-opacity="1"><path d="M69.21520652220799,14.571027971231022 H43.40674498374647 l6.173461538461539,-6.173461538461539 c1.051346153846154,-1.051346153846154 1.051346153846154,-2.7555769230769234 0,-3.806923076923078 c-1.051346153846154,-1.051346153846154 -2.7555769230769234,-1.051346153846154 -3.806923076923078,0 L36.907514214515686,13.455066432769481 l-11.558076923076925,-11.556730769230771 c-1.05,-1.051346153846154 -2.756923076923078,-1.051346153846154 -3.806923076923078,0 c-1.051346153846154,1.051346153846154 -1.051346153846154,2.7555769230769234 0,3.806923076923078 L30.408283445284923,14.571027971231022 H4.599821906823379 c-1.4861538461538464,0 -2.6923076923076925,1.2061538461538464 -2.6923076923076925,2.6923076923076925 v37.69230769230769 h8.076923076923077 V25.34025874046179 c0,-1.4861538461538464 1.2061538461538464,-2.6923076923076925 2.6923076923076925,-2.6923076923076925 h48.46153846153847 c1.4861538461538464,0 2.6923076923076925,1.2061538461538464 2.6923076923076925,2.6923076923076925 v29.615384615384617 h8.076923076923077 V17.263335663538715 C71.90751421451569,15.777181817384868 70.70136036836185,14.571027971231022 69.21520652220799,14.571027971231022 z" stroke-width="0" id="svg_3" fill="#e84141" fill-opacity="1"/><path d="M15.369052676054146,28.03256643276948 v26.923076923076927 h43.07692307692308 V28.03256643276948 H15.369052676054146 zM42.29212959913107,38.80179720200026 c-0.6892307692307693,0 -1.3771153846153845,-0.26250000000000007 -1.9034615384615388,-0.788846153846154 l-2.6923076923076925,-2.6923076923076925 c-1.051346153846154,-1.051346153846154 -1.051346153846154,-2.7555769230769234 0,-3.806923076923078 c1.05,-1.051346153846154 2.7555769230769234,-1.051346153846154 3.806923076923078,0 l2.6923076923076925,2.6923076923076925 c1.051346153846154,1.051346153846154 1.051346153846154,2.7555769230769234 0,3.806923076923078 C43.66924498374647,38.539297202000256 42.98136036836185,38.80179720200026 42.29212959913107,38.80179720200026 zM54.96482190682339,48.78218181738487 C54.43847575297724,49.30852797123103 53.75059113759261,49.57102797123102 53.061360368361846,49.57102797123102 s-1.3771153846153845,-0.26250000000000007 -1.9034615384615388,-0.788846153846154 l-5.384615384615385,-5.384615384615385 c-1.051346153846154,-1.051346153846154 -1.051346153846154,-2.7555769230769234 0,-3.806923076923078 s2.7555769230769234,-1.051346153846154 3.806923076923078,0 l5.384615384615385,5.384615384615385 C56.01616806066954,46.02660489430794 56.01616806066954,47.73083566353873 54.96482190682339,48.78218181738487 zM54.96482190682339,38.01295104815411 C54.43847575297724,38.539297202000256 53.75059113759261,38.80179720200026 53.061360368361846,38.80179720200026 s-1.3771153846153845,-0.26250000000000007 -1.9034615384615388,-0.788846153846154 l-2.6923076923076925,-2.6923076923076925 c-1.051346153846154,-1.051346153846154 -1.051346153846154,-2.7555769230769234 0,-3.806923076923078 c1.051346153846154,-1.051346153846154 2.7555769230769234,-1.051346153846154 3.806923076923078,0 l2.6923076923076925,2.6923076923076925 C56.01616806066954,35.25737412507718 56.01616806066954,36.96160489430795 54.96482190682339,38.01295104815411 z" stroke-width="0" id="svg_4" fill="#e84141" fill-opacity="1"/><path d="M1.9075142145156865,68.41718181738487 c0,1.4861538461538464 1.2061538461538464,2.6923076923076925 2.6923076923076925,2.6923076923076925 h37.69230769230769 v-5.384615384615385 c0,-1.4861538461538464 1.2061538461538464,-2.6923076923076925 2.6923076923076925,-2.6923076923076925 s2.6923076923076925,1.2061538461538464 2.6923076923076925,2.6923076923076925 v5.384615384615385 h2.6923076923076925 v-5.384615384615385 c0,-1.4861538461538464 1.2061538461538464,-2.6923076923076925 2.6923076923076925,-2.6923076923076925 s2.6923076923076925,1.2061538461538464 2.6923076923076925,2.6923076923076925 v5.384615384615385 h13.461538461538463 c1.4861538461538464,0 2.6923076923076925,-1.2061538461538464 2.6923076923076925,-2.6923076923076925 v-8.076923076923077 H1.9075142145156865 V68.41718181738487 z" stroke-width="0" id="svg_5" fill="#e84141" fill-opacity="1"/></g></g></g><g id="SvgjsG4784" featurekey="text1" fill="#e0dede" class="" fill-opacity="1"><path d="M94.14037933141832,59.82303457618507 l0,-3.899999770234464 l-0.6857142453159498,-0.1285714209967406 c-1.542857051960887,-0.21428570166123526 -2.9142855425927863,-0.9428570873094316 -4.0285711912312046,-2.0142855956156023 c-1.3714284906318996,-1.3714284906318996 -2.142857016612343,-3.2142855249185143 -2.142857016612343,-5.142856839869623 l0,-14.699999133960672 c0,-1.9714284552833554 0.77142852598044,-3.771428349237724 2.142857016612343,-5.142856839869623 s3.2142855249185143,-2.142857016612343 5.142856839869623,-2.142857016612343 l3.857142629902217,0 c1.9285713149511086,0 3.771428349237724,0.77142852598044 5.142856839869623,2.142857016612343 s2.142857016612343,3.1714283845862674 2.142857016612343,5.142856839869623 l0,14.699999133960672 c0,1.9285713149511086 -0.77142852598044,3.771428349237724 -2.142857016612343,5.142856839869623 c-1.1142856486384183,1.0714285083061714 -2.485714139270318,1.7999998939543684 -4.0285711912312046,2.0142855956156023 l-0.6857142453159498,0.1285714209967406 l0,3.899999770234464 l-4.714285436547154,0 zM94.56895073474078,31.36589339557316 c-0.6857142453159498,0 -1.328571350299653,0.2571428419934813 -1.7999998939543684,0.7285713856482 c-0.4714285436547179,0.5142856839869582 -0.77142852598044,1.1571427889706651 -0.77142852598044,1.842857034286615 l0,14.699999133960672 c0,0.6857142453159498 0.29999998232572966,1.328571350299653 0.77142852598044,1.7999998939543684 s1.1142856486384183,0.77142852598044 1.7999998939543684,0.77142852598044 l3.857142629902217,0 c0.6857142453159498,0 1.328571350299653,-0.29999998232572966 1.7999998939543684,-0.77142852598044 c0.5142856839869582,-0.4714285436547179 0.77142852598044,-1.1142856486384183 0.77142852598044,-1.7999998939543684 l0,-14.699999133960672 c0,-0.6857142453159498 -0.2571428419934813,-1.328571350299653 -0.77142852598044,-1.842857034286615 c-0.4714285436547179,-0.4714285436547179 -1.1142856486384183,-0.7285713856482 -1.7999998939543684,-0.7285713856482 l-3.857142629902217,0 zM117.28323511083164,55.88017766561836 c-1.9285713149511086,0 -3.771428349237724,-0.7285713856482 -5.142856839869623,-2.099999876280096 s-2.142857016612343,-3.2142855249185143 -2.142857016612343,-5.142856839869623 l0,-21.985712990442636 l4.714285436547154,0 l0,21.985712990442636 c0,0.6857142453159498 0.2571428419934813,1.328571350299653 0.77142852598044,1.7999998939543684 c0.4714285436547179,0.4714285436547179 1.1142856486384183,0.77142852598044 1.7999998939543684,0.77142852598044 l3.857142629902217,0 c0.6857142453159498,0 1.328571350299653,-0.29999998232572966 1.7999998939543684,-0.77142852598044 c0.5142856839869582,-0.4714285436547179 0.77142852598044,-1.1142856486384183 0.77142852598044,-1.7999998939543684 l0,-21.985712990442636 l4.714285436547154,0 l0,21.985712990442636 c0,1.9285713149511086 -0.77142852598044,3.771428349237724 -2.142857016612343,5.142856839869623 s-3.2142855249185143,2.099999876280096 -5.142856839869623,2.099999876280096 l-3.857142629902217,0 zM132.7118056304405,55.79446338495387 l0,-29.528569688918083 l18.55714176386289,0 l0,4.757142576879401 l-13.842856327315735,0 l0,7.6285709791399405 l8.957142329439593,0 l0,4.757142576879401 l-8.957142329439593,0 l0,7.6285709791399405 l13.842856327315735,0 l0,4.757142576879401 l-18.55714176386289,0 zM162.84037528401,55.88017766561836 c-1.9285713149511086,0 -3.771428349237724,-0.7285713856482 -5.142856839869623,-2.099999876280096 s-2.142857016612343,-3.2142855249185143 -2.142857016612343,-5.142856839869623 l0,-21.985712990442636 l4.714285436547154,0 l0,21.985712990442636 c0,0.6857142453159498 0.2571428419934813,1.328571350299653 0.77142852598044,1.7999998939543684 c0.4714285436547179,0.4714285436547179 1.1142856486384183,0.77142852598044 1.7999998939543684,0.77142852598044 l3.857142629902217,0 c0.6857142453159498,0 1.328571350299653,-0.29999998232572966 1.7999998939543684,-0.77142852598044 c0.5142856839869582,-0.4714285436547179 0.77142852598044,-1.1142856486384183 0.77142852598044,-1.7999998939543684 l0,-21.985712990442636 l4.714285436547154,0 l0,21.985712990442636 c0,1.9285713149511086 -0.77142852598044,3.771428349237724 -2.142857016612343,5.142856839869623 s-3.2142855249185143,2.099999876280096 -5.142856839869623,2.099999876280096 l-3.857142629902217,0 zM178.26894580361892,55.79446338495387 l0,-29.528569688918083 l18.55714176386289,0 l0,4.757142576879401 l-13.842856327315735,0 l0,7.6285709791399405 l8.957142329439593,0 l0,4.757142576879401 l-8.957142329439593,0 l0,7.6285709791399405 l13.842856327315735,0 l0,4.757142576879401 l-18.55714176386289,0 zM207.54037265054353,55.88017766561836 l0,-24.514284270045202 l-6.857142453159497,0 l0,-4.714285436547154 l18.385713202533903,0 l0,4.714285436547154 l-6.81428531282725,0 l0,24.514284270045202 l-4.714285436547154,0 zM230.21179988630212,55.88017766561836 c-1.9285713149511086,0 -3.771428349237724,-0.7285713856482 -5.142856839869623,-2.099999876280096 s-2.142857016612343,-3.2142855249185143 -2.142857016612343,-5.142856839869623 l0,-21.985712990442636 l4.714285436547154,0 l0,21.985712990442636 c0,0.6857142453159498 0.2571428419934813,1.328571350299653 0.77142852598044,1.7999998939543684 c0.4714285436547179,0.4714285436547179 1.1142856486384183,0.77142852598044 1.7999998939543684,0.77142852598044 l3.857142629902217,0 c0.6857142453159498,0 1.328571350299653,-0.29999998232572966 1.7999998939543684,-0.77142852598044 c0.5142856839869582,-0.4714285436547179 0.77142852598044,-1.1142856486384183 0.77142852598044,-1.7999998939543684 l0,-21.985712990442636 l4.714285436547154,0 l0,21.985712990442636 c0,1.9285713149511086 -0.77142852598044,3.771428349237724 -2.142857016612343,5.142856839869623 s-3.2142855249185143,2.099999876280096 -5.142856839869623,2.099999876280096 l-3.857142629902217,0 zM245.64037040591097,55.79446338495387 l0,-29.528569688918083 l11.228570767048677,0 c1.9714284552833554,0 3.8142854895699703,0.77142852598044 5.18571398020187,2.142857016612343 c1.4142856309641465,1.4142856309641465 2.1857141569445897,3.257142665250761 2.1857141569445897,5.18571398020187 l0,2.485714139270318 c0,1.628571332625388 -0.5571428243192091,3.1714283845862674 -1.542857051960887,4.457142594553673 l-0.3857142629902247,0.4714285436547179 l0.3857142629902247,0.5142856839869582 c0.9857142276416777,1.2857142099674066 1.542857051960887,2.8285712619282926 1.542857051960887,4.457142594553673 l0,2.485714139270318 c0,1.9285713149511086 -0.77142852598044,3.771428349237724 -2.1857141569445897,5.18571398020187 c-1.3714284906318996,1.3714284906318996 -3.2142855249185143,2.142857016612343 -5.18571398020187,2.142857016612343 l-11.228570767048677,0 zM250.39751298279037,51.03732080807447 l6.471428190169275,0 c0.7285713856482,0 1.3714284906318996,-0.2571428419934813 1.842857034286615,-0.77142852598044 c0.5142856839869582,-0.4714285436547179 0.77142852598044,-1.1142856486384183 0.77142852598044,-1.7999998939543684 l0,-2.485714139270318 c0,-0.6857142453159498 -0.2571428419934813,-1.328571350299653 -0.77142852598044,-1.7999998939543684 c-0.4714285436547179,-0.5142856839869582 -1.1142856486384183,-0.77142852598044 -1.842857034286615,-0.77142852598044 l-6.471428190169275,0 l0,7.6285709791399405 zM250.39751298279037,38.65160725205513 l6.471428190169275,0 c0.7285713856482,0 1.3714284906318996,-0.2571428419934813 1.842857034286615,-0.77142852598044 c0.4714285436547179,-0.4714285436547179 0.77142852598044,-1.1142856486384183 0.77142852598044,-1.7999998939543684 l0,-2.485714139270318 c0,-0.6857142453159498 -0.2571428419934813,-1.328571350299653 -0.77142852598044,-1.7999998939543684 c-0.4714285436547179,-0.5142856839869582 -1.1142856486384183,-0.77142852598044 -1.842857034286615,-0.77142852598044 l-6.471428190169275,0 l0,7.6285709791399405 zM268.5260833433308,55.79446338495387 l0,-29.528569688918083 l18.55714176386289,0 l0,4.757142576879401 l-13.842856327315735,0 l0,7.6285709791399405 l8.957142329439593,0 l0,4.757142576879401 l-8.957142329439593,0 l0,7.6285709791399405 l13.842856327315735,0 l0,4.757142576879401 l-18.55714176386289,0 z" stroke-width="0" id="svg_6" fill="#e0dede" fill-opacity="1"/></g></g></svg>