<svg xmlns="http://www.w3.org/2000/svg" xmlns:xlink="http://www.w3.org/1999/xlink" width="74.01098860791467" height="73.40659316474864" version="1.1" style=""><rect id="backgroundrect" width="100%" height="100%" x="0" y="0" fill="none" stroke="none" class="" style=""/><defs xmlns="http://www.w3.org/1999/xhtml"><style type="text/css"><![CDATA[]]></style></defs><defs id="SvgjsDefs4775"/><g class="currentLayer" style=""><title>Layer 1</title><g id="SvgjsG4782" featurekey="root" fill="#2f5d9d"/><g id="SvgjsG4783" featurekey="symbol1" fill="#e76767" class="" fill-opacity="1"><metadata transform="translate(-0.5494505763053894,0) translate(0,-0.5494505763053894) translate(0,-0.5494505763053894) translate(0,-0.5494505763053894) translate(0,-0.5494505763053894) translate(0,-0.5494505763053894) translate(0,-0.5494505763053894) translate(-0.5494505763053894,0) translate(-0.5494505763053894,0) translate(-0.5494505763053894,0) translate(-0.5494505763053894,0) translate(-0.5494505763053894,0) translate(-0.5494505763053894,0) translate(-0.5494505763053894,0) translate(-0.5494505763053894,0) translate(-0.5494505763053894,0) translate(-0.5494505763053894,0) translate(-0.5494505763053894,0) translate(-0.5494505763053894,0) translate(-0.5494505763053894,0) translate(-0.5494505763053894,0) matrix(1.3461538461538463,0,0,1.3461538461538463,1.9230769230769234,-4.077260072414692) " stroke-width="0"><sfw><slices/><slicesourcebounds height="16384" width="16389" x="-8165" y="-8160" bottomleftorigin="true"/></sfw></metadata><g stroke-width="0" id="svg_1" fill="#e76767" fill-opacity="1"><g stroke-width="0" id="svg_2" fill="#e76767" fill-opacity="1"><path d="M69.06593366311147,14.164498008214512 H43.25747212464994 l6.173461538461539,-6.173461538461539 c1.051346153846154,-1.051346153846154 1.051346153846154,-2.7555769230769234 0,-3.806923076923078 c-1.051346153846154,-1.051346153846154 -2.7555769230769234,-1.051346153846154 -3.806923076923078,0 L36.75824135541916,13.048536469752971 l-11.558076923076925,-11.556730769230771 c-1.05,-1.051346153846154 -2.756923076923078,-1.051346153846154 -3.806923076923078,0 c-1.051346153846154,1.051346153846154 -1.051346153846154,2.7555769230769234 0,3.806923076923078 L30.259010586188396,14.164498008214512 H4.450549047726852 c-1.4861538461538464,0 -2.6923076923076925,1.2061538461538464 -2.6923076923076925,2.6923076923076925 v37.69230769230769 h8.076923076923077 V24.933728777445282 c0,-1.4861538461538464 1.2061538461538464,-2.6923076923076925 2.6923076923076925,-2.6923076923076925 h48.46153846153847 c1.4861538461538464,0 2.6923076923076925,1.2061538461538464 2.6923076923076925,2.6923076923076925 v29.615384615384617 h8.076923076923077 V16.856805700522205 C71.75824135541916,15.370651854368358 70.55208750926532,14.164498008214512 69.06593366311147,14.164498008214512 z" stroke-width="0" id="svg_3" fill="#e76767" fill-opacity="1"/><path d="M15.219779816957622,27.626036469752968 v26.923076923076927 h43.07692307692308 V27.626036469752968 H15.219779816957622 zM42.142856740034546,38.39526723898375 c-0.6892307692307693,0 -1.3771153846153845,-0.26250000000000007 -1.9034615384615388,-0.788846153846154 l-2.6923076923076925,-2.6923076923076925 c-1.051346153846154,-1.051346153846154 -1.051346153846154,-2.7555769230769234 0,-3.806923076923078 c1.05,-1.051346153846154 2.7555769230769234,-1.051346153846154 3.806923076923078,0 l2.6923076923076925,2.6923076923076925 c1.051346153846154,1.051346153846154 1.051346153846154,2.7555769230769234 0,3.806923076923078 C43.51997212464994,38.132767238983746 42.83208750926532,38.39526723898375 42.142856740034546,38.39526723898375 zM54.81554904772686,48.37565185436836 C54.28920289388071,48.90199800821452 53.60131827849608,49.16449800821451 52.91208750926532,49.16449800821451 s-1.3771153846153845,-0.26250000000000007 -1.9034615384615388,-0.788846153846154 l-5.384615384615385,-5.384615384615385 c-1.051346153846154,-1.051346153846154 -1.051346153846154,-2.7555769230769234 0,-3.806923076923078 s2.7555769230769234,-1.051346153846154 3.806923076923078,0 l5.384615384615385,5.384615384615385 C55.866895201573016,45.62007493129143 55.866895201573016,47.32430570052222 54.81554904772686,48.37565185436836 zM54.81554904772686,37.6064210851376 C54.28920289388071,38.132767238983746 53.60131827849608,38.39526723898375 52.91208750926532,38.39526723898375 s-1.3771153846153845,-0.26250000000000007 -1.9034615384615388,-0.788846153846154 l-2.6923076923076925,-2.6923076923076925 c-1.051346153846154,-1.051346153846154 -1.051346153846154,-2.7555769230769234 0,-3.806923076923078 c1.051346153846154,-1.051346153846154 2.7555769230769234,-1.051346153846154 3.806923076923078,0 l2.6923076923076925,2.6923076923076925 C55.866895201573016,34.85084416206067 55.866895201573016,36.55507493129144 54.81554904772686,37.6064210851376 z" stroke-width="0" id="svg_4" fill="#e76767" fill-opacity="1"/><path d="M1.758241355419159,68.01065185436836 c0,1.4861538461538464 1.2061538461538464,2.6923076923076925 2.6923076923076925,2.6923076923076925 h37.69230769230769 v-5.384615384615385 c0,-1.4861538461538464 1.2061538461538464,-2.6923076923076925 2.6923076923076925,-2.6923076923076925 s2.6923076923076925,1.2061538461538464 2.6923076923076925,2.6923076923076925 v5.384615384615385 h2.6923076923076925 v-5.384615384615385 c0,-1.4861538461538464 1.2061538461538464,-2.6923076923076925 2.6923076923076925,-2.6923076923076925 s2.6923076923076925,1.2061538461538464 2.6923076923076925,2.6923076923076925 v5.384615384615385 h13.461538461538463 c1.4861538461538464,0 2.6923076923076925,-1.2061538461538464 2.6923076923076925,-2.6923076923076925 v-8.076923076923077 H1.758241355419159 V68.01065185436836 z" stroke-width="0" id="svg_5" fill="#e76767" fill-opacity="1"/></g></g></g></g></svg>